<?xml version="1.0" encoding="UTF-8" standalone="no"?>
<!-- Created with Inkscape (http://www.inkscape.org/) -->

<svg
   xmlns:dc="http://purl.org/dc/elements/1.1/"
   xmlns:cc="http://creativecommons.org/ns#"
   xmlns:rdf="http://www.w3.org/1999/02/22-rdf-syntax-ns#"
   xmlns:svg="http://www.w3.org/2000/svg"
   xmlns="http://www.w3.org/2000/svg"
   xmlns:sodipodi="http://sodipodi.sourceforge.net/DTD/sodipodi-0.dtd"
   xmlns:inkscape="http://www.inkscape.org/namespaces/inkscape"
   width="210mm"
   height="297mm"
   viewBox="0 0 744.09448819 1052.3622047"
   id="svg4145"
   version="1.1"
   inkscape:version="0.91 r13725"
   sodipodi:docname="broken_ship.svg">
  <defs
     id="defs4147" />
  <sodipodi:namedview
     id="base"
     pagecolor="#ffffff"
     bordercolor="#666666"
     borderopacity="1.0"
     inkscape:pageopacity="0.0"
     inkscape:pageshadow="2"
     inkscape:zoom="0.49497475"
     inkscape:cx="262.14472"
     inkscape:cy="557.03903"
     inkscape:document-units="px"
     inkscape:current-layer="layer1"
     showgrid="false"
     inkscape:window-width="1536"
     inkscape:window-height="801"
     inkscape:window-x="-8"
     inkscape:window-y="-8"
     inkscape:window-maximized="1" />
  <metadata
     id="metadata4150">
    <rdf:RDF>
      <cc:Work
         rdf:about="">
        <dc:format>image/svg+xml</dc:format>
        <dc:type
           rdf:resource="http://purl.org/dc/dcmitype/StillImage" />
        <dc:title></dc:title>
      </cc:Work>
    </rdf:RDF>
  </metadata>
  <g
     inkscape:label="Layer 1"
     inkscape:groupmode="layer"
     id="layer1">
    <path
       style="fill:none;fill-rule:evenodd;stroke:#000000;stroke-width:1.5;stroke-linecap:butt;stroke-linejoin:miter;stroke-opacity:1;stroke-miterlimit:4;stroke-dasharray:none"
       d="m 341.4594,50.689132 c -0.0805,-25.834486 30.07398,-33.437942 33.17874,-1.077268 l 4.30074,846.120086 c 1.47535,35.10165 -32.8296,31.72137 -34.84206,1.32831 z"
       id="path4693"
       inkscape:connector-curvature="0"
       sodipodi:nodetypes="scccs" />
    <g
       id="g4699">
      <path
         sodipodi:nodetypes="caac"
         inkscape:connector-curvature="0"
         id="path4695"
         d="m 341.33929,57.094347 c -38.16146,34.091024 -84.25972,67.928303 -102.71134,116.225893 -63.49594,166.20225 -50.2423,362.14183 -3.26052,533.74496 18.59542,67.92065 84.08269,107.71724 108.72083,181.13756"
         style="fill:none;fill-rule:evenodd;stroke:#000000;stroke-width:1px;stroke-linecap:butt;stroke-linejoin:miter;stroke-opacity:1" />
      <path
         style="fill:none;fill-rule:evenodd;stroke:#000000;stroke-width:1.29999995;stroke-linecap:butt;stroke-linejoin:miter;stroke-miterlimit:4;stroke-dasharray:none;stroke-opacity:1"
         d="m 374.50293,56.841809 c 38.16146,34.091024 84.79656,68.004741 103.37425,116.478431 63.67173,166.13499 48.0437,361.55498 3.26052,533.74496 -17.40259,66.91243 -77.52019,107.09224 -102.15833,180.51256"
         id="path4697"
         inkscape:connector-curvature="0"
         sodipodi:nodetypes="caac" />
    </g>
    <g
       id="g4703"
       transform="matrix(0.88871347,0,0,0.88871347,39.868686,52.573471)">
      <path
         style="fill:none;fill-rule:evenodd;stroke:#000000;stroke-width:1px;stroke-linecap:butt;stroke-linejoin:miter;stroke-opacity:1"
         d="m 339.46787,36.666237 c -38.16146,34.091024 -78.1932,78.708773 -100.83992,136.654003 -49.22447,125.9486 -49.67754,369.73918 -2.12387,545.11142 18.11132,66.79238 80.93968,105.34348 105.57782,178.7638"
         id="path4705"
         inkscape:connector-curvature="0"
         sodipodi:nodetypes="csac" />
      <path
         sodipodi:nodetypes="csac"
         inkscape:connector-curvature="0"
         id="path4707"
         d="m 376.80774,36.979065 c 38.16146,34.091024 78.42272,78.395945 101.06944,136.341175 49.22447,125.9486 49.3868,366.82272 4.39717,541.70148 -17.15573,66.68588 -70.88942,110.70902 -101.15367,180.11069"
         style="fill:none;fill-rule:evenodd;stroke:#000000;stroke-width:1px;stroke-linecap:butt;stroke-linejoin:miter;stroke-opacity:1" />
    </g>
    <g
       transform="matrix(0.77088067,0,0,0.77088067,82.082589,108.2395)"
       id="g4709">
      <path
         sodipodi:nodetypes="csac"
         inkscape:connector-curvature="0"
         id="path4711"
         d="m 336.56785,19.897046 c -38.16146,34.091024 -75.29318,95.477964 -97.9399,153.423194 -49.22447,125.9486 -44.2002,360.6009 -3.26052,533.74496 17.61918,74.5159 79.49292,131.33373 104.13106,204.75405"
         style="fill:none;fill-rule:evenodd;stroke:#000000;stroke-width:1px;stroke-linecap:butt;stroke-linejoin:miter;stroke-opacity:1" />
      <path
         style="fill:none;fill-rule:evenodd;stroke:#000000;stroke-width:1px;stroke-linecap:butt;stroke-linejoin:miter;stroke-opacity:1"
         d="m 379.82397,18.717924 c 38.16146,34.091024 75.40649,96.657086 98.05321,154.602316 49.22447,125.9486 41.72377,360.03399 3.26052,533.74496 -16.25817,73.42652 -71.85168,130.52024 -96.48982,203.94056"
         id="path4713"
         inkscape:connector-curvature="0"
         sodipodi:nodetypes="csac" />
    </g>
    <g
       id="g4715"
       transform="matrix(0.65304787,0,0,0.65304787,124.29649,163.90553)">
      <path
         style="fill:none;fill-rule:evenodd;stroke:#000000;stroke-width:1px;stroke-linecap:butt;stroke-linejoin:miter;stroke-opacity:1"
         d="M 332.79287,4.2287615 C 294.63141,38.319786 255.03323,110.92654 238.62795,173.32024 c -45.24262,172.06984 -40.72201,374.35611 -3.26052,533.74496 20.72255,88.16903 75.84456,150.70403 100.4827,224.12435"
         id="path4717"
         inkscape:connector-curvature="0"
         sodipodi:nodetypes="casc" />
      <path
         sodipodi:nodetypes="casc"
         inkscape:connector-curvature="0"
         id="path4719"
         d="m 384.37367,4.1906769 c 38.16146,34.0910241 77.21875,106.8033831 93.50351,169.1295631 44.97707,172.13944 40.72201,374.35611 3.26052,533.74496 -20.72255,88.16903 -67.51273,150.18091 -92.15087,223.60123"
         style="fill:none;fill-rule:evenodd;stroke:#000000;stroke-width:1px;stroke-linecap:butt;stroke-linejoin:miter;stroke-opacity:1" />
    </g>
    <g
       transform="matrix(0.52212254,0,0,0.52212254,171.20083,225.75667)"
       id="g4721">
      <path
         sodipodi:nodetypes="casc"
         inkscape:connector-curvature="0"
         id="path4723"
         d="m 326.32102,-45.220312 c -38.16146,34.091024 -72.25279,141.58138 -87.69307,218.540552 -34.30595,170.99153 -44.99714,363.75378 -7.53565,523.14263 20.72255,88.16903 74.40917,187.0401 99.04731,260.46042"
         style="fill:none;fill-rule:evenodd;stroke:#000000;stroke-width:1px;stroke-linecap:butt;stroke-linejoin:miter;stroke-opacity:1" />
      <path
         style="fill:none;fill-rule:evenodd;stroke:#000000;stroke-width:1px;stroke-linecap:butt;stroke-linejoin:miter;stroke-opacity:1"
         d="m 390.94288,-45.556699 c 38.16146,34.091024 71.94702,141.817713 86.9343,218.876939 33.96695,174.64584 40.72201,374.35611 3.26052,533.74496 -20.72255,88.16903 -60.27886,172.42288 -84.917,245.8432"
         id="path4725"
         inkscape:connector-curvature="0"
         sodipodi:nodetypes="casc" />
    </g>
  </g>
</svg>
