<?xml version="1.0" encoding="UTF-8" standalone="no"?>
<!-- Created with Inkscape (http://www.inkscape.org/) -->

<svg
   xmlns:dc="http://purl.org/dc/elements/1.1/"
   xmlns:cc="http://creativecommons.org/ns#"
   xmlns:rdf="http://www.w3.org/1999/02/22-rdf-syntax-ns#"
   xmlns:svg="http://www.w3.org/2000/svg"
   xmlns="http://www.w3.org/2000/svg"
   xmlns:sodipodi="http://sodipodi.sourceforge.net/DTD/sodipodi-0.dtd"
   xmlns:inkscape="http://www.inkscape.org/namespaces/inkscape"
   width="210mm"
   height="297mm"
   viewBox="0 0 744.09448819 1052.3622047"
   id="svg2"
   version="1.1"
   inkscape:version="0.91 r13725"
   sodipodi:docname="statek.svg">
  <defs
     id="defs4" />
  <sodipodi:namedview
     id="base"
     pagecolor="#ffffff"
     bordercolor="#666666"
     borderopacity="1.0"
     inkscape:pageopacity="0.0"
     inkscape:pageshadow="2"
     inkscape:zoom="0.98994949"
     inkscape:cx="501.63095"
     inkscape:cy="672.16814"
     inkscape:document-units="px"
     inkscape:current-layer="layer1"
     showgrid="false"
     inkscape:window-width="1536"
     inkscape:window-height="801"
     inkscape:window-x="-8"
     inkscape:window-y="-8"
     inkscape:window-maximized="1" />
  <metadata
     id="metadata7">
    <rdf:RDF>
      <cc:Work
         rdf:about="">
        <dc:format>image/svg+xml</dc:format>
        <dc:type
           rdf:resource="http://purl.org/dc/dcmitype/StillImage" />
        <dc:title></dc:title>
      </cc:Work>
    </rdf:RDF>
  </metadata>
  <g
     inkscape:label="Layer 1"
     inkscape:groupmode="layer"
     id="layer1"
     style="display:inline">
    <path
       style="fill:none;fill-rule:evenodd;stroke:#000000;stroke-width:0.74706072px;stroke-linecap:butt;stroke-linejoin:miter;stroke-opacity:1"
       d="m 397.12109,354.02539 -112.76171,3.02149 c -1.27758,9.9871 -2.45423,19.99559 -3.51563,30.02539 l 116.27734,-1.0293 0,-32.01758 z"
       id="path3336"
       inkscape:connector-curvature="0" />
    <path
       style="fill:none;fill-rule:evenodd;stroke:#000000;stroke-width:0.74706072px;stroke-linecap:butt;stroke-linejoin:miter;stroke-opacity:1"
       d="m 344.82617,310.26953 2.13477,40.55469 136.36718,-0.9336 c -1.68311,-12.64001 -3.54602,-25.23658 -5.5625,-37.7871 l -132.93945,-1.83399 z"
       id="path3338"
       inkscape:connector-curvature="0" />
    <path
       style="fill:none;fill-rule:evenodd;stroke:#000000;stroke-width:0.74706072px;stroke-linecap:butt;stroke-linejoin:miter;stroke-opacity:1"
       d="M 342.26562,310.69727 290.8457,312.125 c -2.0777,12.93289 -3.99523,25.91382 -5.71875,38.94141 l 58.20508,-0.88282 -1.06641,-39.48632 z"
       id="path3340"
       inkscape:connector-curvature="0" />
    <path
       style="fill:none;fill-rule:evenodd;stroke:#000000;stroke-width:0.74706072px;stroke-linecap:butt;stroke-linejoin:miter;stroke-opacity:1"
       d="m 399.68164,354.66602 2.13477,30.95117 86.16797,3.55273 c -1.17202,-11.2399 -2.47454,-22.45615 -3.91797,-33.64258 l -84.38477,-0.86132 z"
       id="path3342"
       inkscape:connector-curvature="0" />
    <path
       style="fill:none;fill-rule:evenodd;stroke:#000000;stroke-width:0.71045393px;stroke-linecap:butt;stroke-linejoin:miter;stroke-opacity:1"
       d="m 314.595,433.13163 c 5.06306,0 125.56381,0 125.56381,0 l 0,-39.67324 -125.56381,4.06905 z"
       id="path3344"
       inkscape:connector-curvature="0" />
    <path
       style="fill:none;fill-rule:evenodd;stroke:#000000;stroke-width:0.71045393px;stroke-linecap:butt;stroke-linejoin:miter;stroke-opacity:1"
       d="m 311.55664,396.50977 -31.77734,1.02929 c -1.18428,12.07678 -2.21759,24.17827 -3.07618,36.29688 l 34.85352,-1.72071 0,-35.60546 z"
       id="path3346"
       inkscape:connector-curvature="0" />
    <path
       style="fill:none;fill-rule:evenodd;stroke:#000000;stroke-width:0.71045393px;stroke-linecap:butt;stroke-linejoin:miter;stroke-opacity:1"
       d="m 445.22266,392.44141 -1.01368,41.70703 47.67188,-0.77735 c -0.93873,-13.18438 -2.09249,-26.34671 -3.41602,-39.48047 l -43.24218,-1.44921 z"
       id="path3348"
       inkscape:connector-curvature="0" />
    <path
       style="fill:none;fill-rule:evenodd;stroke:#000000;stroke-width:0.74706072px;stroke-linecap:butt;stroke-linejoin:miter;stroke-opacity:1"
       d="m 492.20312,438.25391 -31.04882,2.21875 3.20117,35.21875 29.82422,-0.76563 c -0.48143,-12.23519 -1.15227,-24.46026 -1.97657,-36.67187 z"
       id="path3350"
       inkscape:connector-curvature="0" />
    <path
       style="fill:none;fill-rule:evenodd;stroke:#000000;stroke-width:0.74706072px;stroke-linecap:butt;stroke-linejoin:miter;stroke-opacity:1"
       d="m 454.75195,439.61719 c 0,0 -129.35182,4.24194 -178.66015,3.51953 -0.70931,11.11939 -1.29239,22.24903 -1.7168,33.38672 l 186.7793,-4.88867 -6.40235,-32.01758 z"
       id="path3352"
       inkscape:connector-curvature="0" />
    <path
       style="fill:none;fill-rule:evenodd;stroke:#000000;stroke-width:0.74706072px;stroke-linecap:butt;stroke-linejoin:miter;stroke-opacity:1"
       d="m 425.93555,476.11719 -2.13477,36.28515 71.32617,2.67578 c -0.0907,-11.83293 -0.34698,-23.66766 -0.76953,-35.49609 l -68.42187,-3.46484 z"
       id="path3354"
       inkscape:connector-curvature="0" />
    <path
       style="fill:none;fill-rule:evenodd;stroke:#000000;stroke-width:0.74706072px;stroke-linecap:butt;stroke-linejoin:miter;stroke-opacity:1"
       d="m 420.59961,478.89258 -146.51172,5.82031 c -0.31672,9.98631 -0.51788,19.97604 -0.59766,29.96484 l 146.04297,-4.83593 1.06641,-30.94922 z"
       id="path3356"
       inkscape:connector-curvature="0" />
    <path
       style="fill:none;fill-rule:evenodd;stroke:#000000;stroke-width:0.74706072px;stroke-linecap:butt;stroke-linejoin:miter;stroke-opacity:1"
       d="m 346.96094,518.375 -2.13477,40.55469 149.90625,-1.86328 c 0.33499,-12.57165 0.47541,-25.15576 0.42188,-37.74219 L 346.96094,518.375 Z"
       id="path3358"
       inkscape:connector-curvature="0" />
    <path
       style="fill:none;fill-rule:evenodd;stroke:#000000;stroke-width:0.74706072px;stroke-linecap:butt;stroke-linejoin:miter;stroke-opacity:1"
       d="m 343.33203,519.01367 -69.875,0.90821 c -0.0461,12.23197 0.0932,24.46169 0.41406,36.67968 l 68.39453,1.90039 1.06641,-39.48828 z"
       id="path3360"
       inkscape:connector-curvature="0" />
    <path
       style="fill:none;fill-rule:evenodd;stroke:#000000;stroke-width:0.74706072px;stroke-linecap:butt;stroke-linejoin:miter;stroke-opacity:1"
       d="m 382.81977,562.13606 1.06722,42.68919 101.38682,2.13446 -1.06723,-43.75642 z"
       id="path3362"
       inkscape:connector-curvature="0" />
    <path
       style="fill:none;fill-rule:evenodd;stroke:#000000;stroke-width:0.74706072px;stroke-linecap:butt;stroke-linejoin:miter;stroke-opacity:1"
       d="m 274.06055,563.20312 c 0.43195,13.59353 1.09653,27.17034 2,40.72071 l 103.55664,0.90234 -3.20117,-41.62305 -102.35547,0 z"
       id="path3364"
       inkscape:connector-curvature="0" />
    <path
       style="fill:none;fill-rule:evenodd;stroke:#000000;stroke-width:0.74706072px;stroke-linecap:butt;stroke-linejoin:miter;stroke-opacity:1"
       d="m 489.54297,566.4043 0,39.48828 2.86914,0.11914 c 0.9029,-13.17985 1.57945,-26.3853 2.03516,-39.60742 l -4.9043,0 z"
       id="path3366"
       inkscape:connector-curvature="0" />
    <path
       style="fill:none;fill-rule:evenodd;stroke:#000000;stroke-width:0.74706072px;stroke-linecap:butt;stroke-linejoin:miter;stroke-opacity:1"
       d="m 298.62891,611.86914 -21.9668,0.56445 c 0.84578,11.40325 1.86022,22.78663 3.05273,34.14063 l 22.11524,0.51367 -3.20117,-35.21875 z"
       id="path3368"
       inkscape:connector-curvature="0" />
    <path
       style="fill:none;fill-rule:evenodd;stroke:#000000;stroke-width:0.74706072px;stroke-linecap:butt;stroke-linejoin:miter;stroke-opacity:1"
       d="m 492.06445,610.94531 -190.23437,4.98047 6.40234,32.01563 c 0,0 133.44219,-4.37213 180.88477,-3.47461 1.14933,-11.14914 2.1316,-22.3256 2.94726,-33.52149 z"
       id="path3370"
       inkscape:connector-curvature="0" />
    <path
       style="fill:none;fill-rule:evenodd;stroke:#000000;stroke-width:0.74706072px;stroke-linecap:butt;stroke-linejoin:miter;stroke-opacity:1"
       d="m 346.96094,652.8457 -2.13477,40.55469 138.4043,-1.91016 c 1.85011,-12.51694 3.4768,-25.07827 4.88476,-37.67773 l -141.15429,-0.9668 z"
       id="path3372"
       inkscape:connector-curvature="0" />
    <path
       style="fill:none;fill-rule:evenodd;stroke:#000000;stroke-width:0.74706072px;stroke-linecap:butt;stroke-linejoin:miter;stroke-opacity:1"
       d="m 343.33203,653.48633 -62.69531,1.54687 c 1.43227,12.6877 3.08749,25.33615 4.96875,37.93946 l 56.66015,0 1.06641,-39.48633 z"
       id="path3374"
       inkscape:connector-curvature="0" />
    <path
       style="fill:none;fill-rule:evenodd;stroke:#000000;stroke-width:0.74706072px;stroke-linecap:butt;stroke-linejoin:miter;stroke-opacity:1"
       d="m 286.91406,701.50586 c 1.82056,11.54253 3.82985,23.04594 6.04102,34.49805 l 104.16601,-2.48047 0,-32.01758 -110.20703,0 z"
       id="path3376"
       inkscape:connector-curvature="0" />
    <path
       style="fill:none;fill-rule:evenodd;stroke:#000000;stroke-width:0.74706072px;stroke-linecap:butt;stroke-linejoin:miter;stroke-opacity:1"
       d="m 482.15234,698.62109 -80.33593,3.3125 -2.13477,30.94922 76.71875,-0.7832 c 2.1008,-11.11636 4.01758,-22.27851 5.75195,-33.47852 z"
       id="path3378"
       inkscape:connector-curvature="0" />
    <path
       sodipodi:nodetypes="aacaaca"
       inkscape:connector-curvature="0"
       id="path3384"
       d="m 494.26266,832.60434 c 57.401,-191.44523 51.49018,-404.80784 6.57085,-599.56 C 481.33991,148.52795 461.20592,52.117264 384.30754,0.38818385 307.40917,52.117264 287.27517,148.52795 267.78158,233.04434 c -44.91933,194.75217 -50.83015,408.11477 6.57085,599.56 19.45663,64.89223 52.6136,137.98849 109.95511,170.92666 57.34152,-32.93817 90.49849,-106.03442 109.95512,-170.92666 z"
       style="fill:none;fill-rule:evenodd;stroke:#000000;stroke-width:0.5;stroke-linecap:butt;stroke-linejoin:miter;stroke-miterlimit:4;stroke-dasharray:none;stroke-opacity:1" />
    <path
       style="fill:none;fill-rule:evenodd;stroke:#000000;stroke-width:1.54799998;stroke-linecap:butt;stroke-linejoin:miter;stroke-miterlimit:4;stroke-dasharray:none;stroke-opacity:1"
       d="M 465.55176,782.35122 C 505.71025,617.6875 502.49574,440.47316 471.12398,273.91189 456.80119,197.86825 449.51896,102.48198 384.30754,58.61465 c -65.21141,43.86733 -72.49364,139.2536 -86.81643,215.29724 -31.37176,166.56127 -34.58626,343.77561 5.57222,508.43933 14.23932,58.38617 32.61742,133.01712 81.24421,160.94938 48.6268,-27.93226 67.0049,-102.56321 81.24422,-160.94938 z"
       id="path3390"
       inkscape:connector-curvature="0"
       sodipodi:nodetypes="aacaaca" />
    <path
       style="fill:none;fill-rule:evenodd;stroke:#000000;stroke-width:1.5;stroke-linecap:butt;stroke-linejoin:miter;stroke-miterlimit:4;stroke-dasharray:none;stroke-opacity:1"
       d="M 506.26266,832.60434 C 568.24922,642.59429 561.67529,426.85 512.83351,233.04434 491.1823,147.1317 461.20592,52.117264 384.30754,0.38818385 307.40917,52.117264 277.43279,147.1317 255.78158,233.04434 c -48.84178,193.80566 -55.4157,409.54995 6.57085,599.56 21.7072,66.54001 64.6136,137.98849 121.95511,170.92666 57.34152,-32.93817 100.24792,-104.38665 121.95512,-170.92666 z"
       id="path3392"
       inkscape:connector-curvature="0"
       sodipodi:nodetypes="aacaaca" />
    <path
       style="fill:none;fill-rule:evenodd;stroke:#000000;stroke-width:0.74706072px;stroke-linecap:butt;stroke-linejoin:miter;stroke-opacity:1"
       d="m 370.96094,738.375 -2.13477,40.55469 97.83594,-1.21485 c 3.05917,-12.82059 5.85672,-25.71503 8.40039,-38.67382 L 370.96094,738.375 Z"
       id="path3394"
       inkscape:connector-curvature="0" />
    <path
       style="fill:none;fill-rule:evenodd;stroke:#000000;stroke-width:0.74706072px;stroke-linecap:butt;stroke-linejoin:miter;stroke-opacity:1"
       d="m 367.33203,739.01367 -73.59765,0.95703 c 2.42786,12.30708 5.08549,24.55589 7.97851,36.73828 l 64.55273,1.79297 1.06641,-39.48828 z"
       id="path3396"
       inkscape:connector-curvature="0" />
    <path
       style="fill:none;fill-rule:evenodd;stroke:#000000;stroke-width:0.74706072px;stroke-linecap:butt;stroke-linejoin:miter;stroke-opacity:1"
       d="m 326.62891,780.55078 -23.85157,0.61133 c 0.0961,0.39616 0.18858,0.79344 0.28516,1.18945 2.7127,11.123 5.5798,22.83618 8.77344,34.70313 l 17.99414,-1.28516 -3.20117,-35.21875 z"
       id="path3398"
       inkscape:connector-curvature="0" />
    <path
       style="fill:none;fill-rule:evenodd;stroke:#000000;stroke-width:0.74706072px;stroke-linecap:butt;stroke-linejoin:miter;stroke-opacity:1"
       d="m 465.86523,781.04688 -136.03515,3.56054 6.40234,32.01758 c 0,0 65.82464,-2.15261 121.48438,-3.12695 2.81482,-10.64346 5.39564,-21.14044 7.83593,-31.14649 0.10594,-0.43436 0.20718,-0.87015 0.3125,-1.30468 z"
       id="path3400"
       inkscape:connector-curvature="0" />
    <path
       style="fill:none;fill-rule:evenodd;stroke:#000000;stroke-width:0.71045393px;stroke-linecap:butt;stroke-linejoin:miter;stroke-opacity:1"
       d="m 455.92773,820.17969 -103.33203,3.34765 0,35.60352 91.14063,0 c 4.63824,-12.7438 8.6245,-25.91313 12.1914,-38.95117 z"
       id="path3402"
       inkscape:connector-curvature="0" />
    <path
       style="fill:none;fill-rule:evenodd;stroke:#000000;stroke-width:0.71045393px;stroke-linecap:butt;stroke-linejoin:miter;stroke-opacity:1"
       d="m 349.55664,822.50977 -35.90625,1.16406 c 3.33691,11.96053 7.04625,23.98805 11.30078,35.65625 l 24.60547,-1.21485 0,-35.60546 z"
       id="path3404"
       inkscape:connector-curvature="0" />
    <path
       style="fill:none;fill-rule:evenodd;stroke:#000000;stroke-width:0.74706072px;stroke-linecap:butt;stroke-linejoin:miter;stroke-opacity:1"
       d="m 326.8457,864.4082 c 5.49242,14.35865 11.87581,28.04769 19.50196,40.22852 l 76.23828,-0.52149 c 7.20517,-11.60186 13.29456,-24.54976 18.57031,-38.13085 L 326.8457,864.4082 Z"
       id="path3408"
       inkscape:connector-curvature="0" />
    <path
       style="fill:none;fill-rule:evenodd;stroke:#000000;stroke-width:0.74706072px;stroke-linecap:butt;stroke-linejoin:miter;stroke-opacity:1"
       d="m 349.08789,224.11719 -43.2793,2.1914 c -2.12869,12.20816 -4.13476,24.29842 -6.21289,36.03125 l 51.62696,-1.9375 -2.13477,-36.28515 z"
       id="path3410"
       inkscape:connector-curvature="0" />
    <path
       style="fill:none;fill-rule:evenodd;stroke:#000000;stroke-width:0.74706072px;stroke-linecap:butt;stroke-linejoin:miter;stroke-opacity:1"
       d="m 354.42383,226.89258 1.0664,30.94922 113.39844,3.7539 c -1.75135,-9.91757 -3.45328,-20.0873 -5.22265,-30.36328 l -109.24219,-4.33984 z"
       id="path3412"
       inkscape:connector-curvature="0" />
    <path
       style="fill:none;fill-rule:evenodd;stroke:#000000;stroke-width:0.74706072px;stroke-linecap:butt;stroke-linejoin:miter;stroke-opacity:1"
       d="m 428.0625,266.375 -129.33594,0.82812 c -0.40763,2.25053 -0.81831,4.48965 -1.23633,6.70899 -1.95769,10.39393 -3.80436,20.82952 -5.53906,31.30078 l 138.2461,1.7168 -2.13477,-40.55469 z"
       id="path3414"
       inkscape:connector-curvature="0" />
    <path
       style="fill:none;fill-rule:evenodd;stroke:#000000;stroke-width:0.74706072px;stroke-linecap:butt;stroke-linejoin:miter;stroke-opacity:1"
       d="m 431.69141,267.01367 1.0664,39.48828 43.91797,-1.2207 c -1.73798,-10.49423 -3.59078,-20.95257 -5.55273,-31.36914 -0.39879,-2.11726 -0.78847,-4.25468 -1.17774,-6.40039 l -38.2539,-0.49805 z"
       id="path3416"
       inkscape:connector-curvature="0" />
    <path
       style="fill:none;fill-rule:evenodd;stroke:#000000;stroke-width:0.74706072px;stroke-linecap:butt;stroke-linejoin:miter;stroke-opacity:1"
       d="m 313.85352,184.88281 c -2.52089,11.26564 -4.69679,22.65611 -6.72852,34 l 89.99609,0 0,-32.01758 -83.26757,-1.98242 z"
       id="path3418"
       inkscape:connector-curvature="0" />
    <path
       style="fill:none;fill-rule:evenodd;stroke:#000000;stroke-width:0.74706072px;stroke-linecap:butt;stroke-linejoin:miter;stroke-opacity:1"
       d="m 399.68164,187.50586 2.13477,30.94922 60.03515,2.47656 c -1.94516,-10.95116 -4.01647,-21.95143 -6.39258,-32.85742 l -55.77734,-0.56836 z"
       id="path3420"
       inkscape:connector-curvature="0" />
    <path
       style="fill:none;fill-rule:evenodd;stroke:#000000;stroke-width:0.71045393px;stroke-linecap:butt;stroke-linejoin:miter;stroke-opacity:1"
       d="m 325.86719,141.80273 c -4.17543,11.95241 -7.63423,24.395 -10.62305,37.06055 l 0,2.26758 125.56445,0 0,-35.60352 -114.9414,-3.72461 z"
       id="path3422"
       inkscape:connector-curvature="0" />
    <path
       style="fill:none;fill-rule:evenodd;stroke:#000000;stroke-width:0.71045393px;stroke-linecap:butt;stroke-linejoin:miter;stroke-opacity:1"
       d="m 443.8457,145.00586 0,35.10937 9.93164,0.49024 c -2.81939,-12.13684 -6.05748,-24.08125 -9.93164,-35.59961 z"
       id="path3424"
       inkscape:connector-curvature="0" />
    <path
       style="fill:none;fill-rule:evenodd;stroke:#000000;stroke-width:0.74706072px;stroke-linecap:butt;stroke-linejoin:miter;stroke-opacity:1"
       d="m 423.68164,100.58594 -79.07422,0.54101 c -7.07875,11.64215 -12.85605,24.3361 -17.6914,37.68946 l 115.35351,1.58984 c -5.02363,-14.14279 -11.07682,-27.57166 -18.58789,-39.82031 z"
       id="path3428"
       inkscape:connector-curvature="0" />
    <path
       style="fill:none;stroke:#000000;stroke-width:0.86322105;stroke-opacity:1"
       d="m 524.83594,285.86719 a 73.373787,32.062496 79.538497 0 0 12.22851,-75.39258 73.373787,32.062496 79.538497 0 0 -44.85156,-66.33203 73.373787,32.062496 79.538497 0 0 -5.20703,2.14648 c 0.6274,1.71898 1.30124,3.41935 1.91211,5.14453 1.91398,5.40534 3.74954,10.83973 5.51367,16.28907 3.52826,10.89866 6.77446,21.8581 9.81641,32.77929 3.04194,10.9212 5.87953,21.80389 8.58593,32.54297 3.05262,12.11286 5.94028,24.31138 8.65625,36.58399 1.1911,5.38219 2.22113,10.82858 3.34571,16.23828 z"
       id="path4431"
       inkscape:connector-curvature="0" />
    <path
       style="fill:none;stroke:#000000;stroke-width:0.86322105;stroke-opacity:1"
       d="m 546.66797,434.71094 a 73.373787,32.062496 86.187278 0 0 22.11914,-73.99414 73.373787,32.062496 86.187278 0 0 -36.87109,-71.08008 73.373787,32.062496 86.187278 0 0 -5.94336,1.75 c 1.03597,5.09523 2.16863,10.15225 3.14453,15.26953 2.3665,12.40909 4.5544,24.88201 6.55859,37.4043 2.00419,12.52229 3.82409,25.09481 5.45313,37.70703 1.62903,12.61221 3.06754,25.26254 4.30859,37.9414 0.48857,4.99137 0.80342,10.00278 1.23047,15.00196 z"
       id="path4434"
       inkscape:connector-curvature="0" />
    <path
       style="fill:none;stroke:#000000;stroke-width:0.86322105;stroke-opacity:1"
       d="m 479.46289,895.41992 a 32.062496,73.373787 10.461503 0 0 12.75195,10.4336 32.062496,73.373787 10.461503 0 0 44.85157,-66.33204 32.062496,73.373787 10.461503 0 0 -11.80079,-75.03125 c -2.55123,10.78829 -5.22298,21.53968 -8.17773,32.19727 -3.34495,12.06504 -6.95201,24.04039 -10.82617,35.91602 -2.7134,8.3175 -5.75648,16.71156 -9.11914,25.09765 -3.36267,8.38609 -7.04379,16.76571 -11.0293,25.05078 -2.06154,4.28555 -4.42756,8.44388 -6.65039,12.66797 z"
       id="path4440"
       inkscape:connector-curvature="0" />
    <path
       style="fill:none;stroke:#000000;stroke-width:0.86322105;stroke-opacity:1"
       d="m 526.62891,758.88477 a 32.062496,73.373787 3.8127225 0 0 5.28711,1.47265 32.062496,73.373787 3.8127225 0 0 36.87109,-71.08008 32.062496,73.373787 3.8127225 0 0 -20.80273,-73.42382 c -0.82126,10.86585 -1.72778,21.72044 -2.89258,32.53125 -1.3565,12.5899 -2.94886,25.13725 -4.78321,37.63085 -1.83435,12.49361 -3.91128,24.93457 -6.23632,37.3086 -2.2398,11.92032 -4.7365,23.7724 -7.44336,35.56055 z"
       id="path4437"
       inkscape:connector-curvature="0" />
    <path
       id="path4462"
       d="m 243.72423,285.86719 a 32.062496,73.373787 10.461503 0 1 -12.22851,-75.39258 32.062496,73.373787 10.461503 0 1 44.85156,-66.33203 32.062496,73.373787 10.461503 0 1 5.20703,2.14648 c -0.6274,1.71898 -1.30124,3.41935 -1.91211,5.14453 -1.91398,5.40534 -3.74954,10.83973 -5.51367,16.28907 -3.52826,10.89866 -6.77446,21.8581 -9.81641,32.77929 -3.04194,10.9212 -5.87953,21.80389 -8.58593,32.54297 -3.05262,12.11286 -5.94028,24.31138 -8.65625,36.58399 -1.1911,5.38219 -2.22113,10.82858 -3.34571,16.23828 z"
       style="fill:none;stroke:#000000;stroke-width:0.86322105;stroke-opacity:1"
       inkscape:connector-curvature="0" />
    <path
       id="path4464"
       d="m 221.8922,434.71094 a 32.062496,73.373787 3.812722 0 1 -22.11914,-73.99414 32.062496,73.373787 3.812722 0 1 36.87109,-71.08008 32.062496,73.373787 3.812722 0 1 5.94336,1.75 c -1.03597,5.09523 -2.16863,10.15225 -3.14453,15.26953 -2.3665,12.40909 -4.5544,24.88201 -6.55859,37.4043 -2.00419,12.52229 -3.82409,25.09481 -5.45313,37.70703 -1.62903,12.61221 -3.06754,25.26254 -4.30859,37.9414 -0.48857,4.99137 -0.80342,10.00278 -1.23047,15.00196 z"
       style="fill:none;stroke:#000000;stroke-width:0.86322105;stroke-opacity:1"
       inkscape:connector-curvature="0" />
    <path
       id="path4466"
       d="m 289.09728,895.41992 a 73.373787,32.062496 79.538497 0 1 -12.75195,10.4336 73.373787,32.062496 79.538497 0 1 -44.85157,-66.33204 73.373787,32.062496 79.538497 0 1 11.80079,-75.03125 c 2.55123,10.78829 5.22298,21.53968 8.17773,32.19727 3.34495,12.06504 6.95201,24.04039 10.82617,35.91602 2.7134,8.3175 5.75648,16.71156 9.11914,25.09765 3.36267,8.38609 7.04379,16.76571 11.0293,25.05078 2.06154,4.28555 4.42756,8.44388 6.65039,12.66797 z"
       style="fill:none;stroke:#000000;stroke-width:0.86322105;stroke-opacity:1"
       inkscape:connector-curvature="0" />
    <path
       id="path4468"
       d="m 241.93126,758.88477 a 73.373787,32.062496 86.187278 0 1 -5.28711,1.47265 73.373787,32.062496 86.187278 0 1 -36.87109,-71.08008 73.373787,32.062496 86.187278 0 1 20.80273,-73.42382 c 0.82126,10.86585 1.72778,21.72044 2.89258,32.53125 1.3565,12.5899 2.94886,25.13725 4.78321,37.63085 1.83435,12.49361 3.91128,24.93457 6.23632,37.3086 2.2398,11.92032 4.7365,23.7724 7.44336,35.56055 z"
       style="fill:none;stroke:#000000;stroke-width:0.86322105;stroke-opacity:1"
       inkscape:connector-curvature="0" />
    <path
       style="fill:none;fill-rule:evenodd;stroke:#000000;stroke-width:0.5;stroke-linecap:butt;stroke-linejoin:miter;stroke-miterlimit:4;stroke-dasharray:none;stroke-opacity:1"
       d="m 384.36304,0.28832763 0,58.33630937"
       id="path4470"
       inkscape:connector-curvature="0" />
    <g
       id="g4478"
       transform="translate(-0.25253814,1.0101525)">
      <g
         id="g4484">
        <path
           sodipodi:nodetypes="ccc"
           style="fill:none;fill-rule:evenodd;stroke:#000000;stroke-width:0.5;stroke-linecap:butt;stroke-linejoin:round;stroke-miterlimit:4;stroke-dasharray:none;stroke-opacity:1"
           d="m 363.44701,75.90052 c 8.20726,-38.697903 19.08903,-78.9823707 21.18829,-105.411693 2.09926,26.4293223 11.05001,64.960028 19.25727,103.657931"
           id="path4474"
           inkscape:connector-curvature="0" />
        <path
           inkscape:connector-curvature="0"
           id="path4482"
           d="m 373.54854,66.170142 c 8.20726,-38.697903 8.73496,-68.4943783 10.83422,-94.923701 2.09926,26.4293227 2.87951,56.284445 11.08677,94.982348"
           style="fill:none;fill-rule:evenodd;stroke:#000000;stroke-width:0.5;stroke-linecap:butt;stroke-linejoin:bevel;stroke-miterlimit:4;stroke-dasharray:none;stroke-opacity:1"
           sodipodi:nodetypes="ccc" />
      </g>
      <g
         id="g4488"
         transform="matrix(1,0,0,-1,0,972.8553)">
        <path
           inkscape:connector-curvature="0"
           id="path4490"
           d="m 368.70567,42.462196 c 8.20726,-38.6979034 13.83037,-44.5338942 15.92963,-70.963216 2.09926,26.4293218 8.73253,33.0229268 16.93979,71.72083"
           style="fill:none;fill-rule:evenodd;stroke:#000000;stroke-width:0.5;stroke-linecap:butt;stroke-linejoin:miter;stroke-miterlimit:4;stroke-dasharray:none;stroke-opacity:1"
           sodipodi:nodetypes="ccc" />
        <path
           sodipodi:nodetypes="ccc"
           style="fill:none;fill-rule:evenodd;stroke:#000000;stroke-width:0.5;stroke-linecap:butt;stroke-linejoin:miter;stroke-miterlimit:4;stroke-dasharray:none;stroke-opacity:1"
           d="m 377.03943,35.138589 c 8.20726,-38.697903 5.24407,-37.4628253 7.34333,-63.892148 2.09926,26.4293227 0.65131,26.2043972 8.85857,64.9023"
           id="path4492"
           inkscape:connector-curvature="0" />
        <path
           sodipodi:nodetypes="ccc"
           style="fill:none;fill-rule:evenodd;stroke:#000000;stroke-width:0.5;stroke-linecap:butt;stroke-linejoin:miter;stroke-miterlimit:4;stroke-dasharray:none;stroke-opacity:1"
           d="m 362.65935,48.054537 c 8.4522,-39.8528077 19.79897,-50.4086547 21.96088,-77.626736 2.16191,27.2180813 15.55913,40.32192 24.01133,80.174726"
           id="path4494"
           inkscape:connector-curvature="0" />
      </g>
    </g>
    <path
       id="path4496"
       d="m 482.69769,888.87483 a 29.016381,66.035395 10.551594 0 0 11.54273,9.38825 29.016381,66.035395 10.551594 0 0 40.59844,-59.68612 29.016381,66.035395 10.551594 0 0 -10.68176,-67.51375 c -2.3093,9.70739 -4.7277,19.38159 -7.40226,28.97137 -3.02776,10.85623 -6.29277,21.63175 -9.79956,32.31754 -2.4561,7.48415 -5.21061,15.0372 -8.2544,22.58307 -3.0438,7.54588 -6.37585,15.08593 -9.98343,22.5409 -1.86605,3.85618 -4.00771,7.59788 -6.01976,11.39874 z"
       style="fill:none;stroke:#000000;stroke-width:0.5;stroke-miterlimit:4;stroke-dasharray:none;stroke-opacity:1"
       inkscape:connector-curvature="0" />
    <path
       id="path4498"
       d="m 529.58997,748.99709 a 27.591013,63.140971 3.8127225 0 0 4.54976,1.26729 27.591013,63.140971 3.8127225 0 0 31.72899,-61.16716 27.591013,63.140971 3.8127225 0 0 -17.90156,-63.18403 c -0.70672,9.35048 -1.48682,18.69128 -2.48916,27.9944 -1.16732,10.8341 -2.53761,21.63157 -4.11614,32.38279 -1.57853,10.75124 -3.36581,21.45717 -5.3666,32.1055 -1.92743,10.25789 -4.07594,20.45705 -6.40529,30.60121 z"
       style="fill:none;stroke:#000000;stroke-width:0.5;stroke-miterlimit:4;stroke-dasharray:none;stroke-opacity:1"
       inkscape:connector-curvature="0" />
    <path
       id="path4500"
       d="m 546.76732,426.41349 a 64.970367,28.390413 86.187278 0 0 19.58586,-65.51968 64.970367,28.390413 86.187278 0 0 -32.64829,-62.93935 64.970367,28.390413 86.187278 0 0 -5.26267,1.54957 c 0.91732,4.51168 1.92027,8.98953 2.7844,13.52073 2.09546,10.98789 4.03278,22.0323 5.80744,33.12043 1.77465,11.08813 3.38612,22.22073 4.82858,33.38848 1.44246,11.16775 2.71622,22.36925 3.81513,33.59602 0.43262,4.41971 0.71141,8.85717 1.08955,13.2838 z"
       style="fill:none;stroke:#000000;stroke-width:0.5;stroke-miterlimit:4;stroke-dasharray:none;stroke-opacity:1"
       inkscape:connector-curvature="0" />
    <path
       id="path4502"
       d="m 523.5389,277.87524 a 65.094891,28.444827 79.538497 0 0 10.84874,-66.8859 65.094891,28.444827 79.538497 0 0 -39.79088,-58.84766 65.094891,28.444827 79.538497 0 0 -4.61951,1.90429 c 0.55661,1.52502 1.15442,3.03353 1.69637,4.56406 1.69802,4.79544 3.32647,9.61666 4.89155,14.45114 3.13016,9.66895 6.01008,19.39182 8.70881,29.08075 2.69871,9.68894 5.21613,19.34372 7.61716,28.87109 2.70819,10.74614 5.27003,21.56828 7.67955,32.45615 1.05671,4.77491 1.97052,9.60677 2.96821,14.40608 z"
       style="fill:none;stroke:#000000;stroke-width:0.5;stroke-miterlimit:4;stroke-dasharray:none;stroke-opacity:1"
       inkscape:connector-curvature="0" />
    <path
       inkscape:connector-curvature="0"
       style="fill:none;stroke:#000000;stroke-width:0.5;stroke-miterlimit:4;stroke-dasharray:none;stroke-opacity:1"
       d="m 286.61431,888.87483 a 66.035395,29.016381 79.448406 0 1 -11.54273,9.38825 66.035395,29.016381 79.448406 0 1 -40.59844,-59.68612 66.035395,29.016381 79.448406 0 1 10.68176,-67.51375 c 2.3093,9.70739 4.7277,19.38159 7.40226,28.97137 3.02776,10.85623 6.29277,21.63175 9.79956,32.31754 2.4561,7.48415 5.21061,15.0372 8.2544,22.58307 3.0438,7.54588 6.37585,15.08593 9.98343,22.5409 1.86605,3.85618 4.00771,7.59788 6.01976,11.39874 z"
       id="path4504" />
    <path
       inkscape:connector-curvature="0"
       style="fill:none;stroke:#000000;stroke-width:0.5;stroke-miterlimit:4;stroke-dasharray:none;stroke-opacity:1"
       d="m 239.72203,748.99709 a 63.140971,27.591013 86.187278 0 1 -4.54976,1.26729 63.140971,27.591013 86.187278 0 1 -31.72899,-61.16716 63.140971,27.591013 86.187278 0 1 17.90156,-63.18403 c 0.70672,9.35048 1.48682,18.69128 2.48916,27.9944 1.16732,10.8341 2.53761,21.63157 4.11614,32.38279 1.57853,10.75124 3.36581,21.45717 5.3666,32.1055 1.92743,10.25789 4.07594,20.45705 6.40529,30.60121 z"
       id="path4506" />
    <path
       inkscape:connector-curvature="0"
       style="fill:none;stroke:#000000;stroke-width:0.5;stroke-miterlimit:4;stroke-dasharray:none;stroke-opacity:1"
       d="m 222.54468,426.41349 a 28.390413,64.970367 3.812722 0 1 -19.58586,-65.51968 28.390413,64.970367 3.812722 0 1 32.64829,-62.93935 28.390413,64.970367 3.812722 0 1 5.26267,1.54957 c -0.91732,4.51168 -1.92027,8.98953 -2.7844,13.52073 -2.09546,10.98789 -4.03278,22.0323 -5.80744,33.12043 -1.77465,11.08813 -3.38612,22.22073 -4.82858,33.38848 -1.44246,11.16775 -2.71622,22.36925 -3.81513,33.59602 -0.43262,4.41971 -0.71141,8.85717 -1.08955,13.2838 z"
       id="path4508" />
    <path
       inkscape:connector-curvature="0"
       style="fill:none;stroke:#000000;stroke-width:0.5;stroke-miterlimit:4;stroke-dasharray:none;stroke-opacity:1"
       d="m 245.7731,277.87524 a 28.444827,65.094891 10.461503 0 1 -10.84874,-66.8859 28.444827,65.094891 10.461503 0 1 39.79088,-58.84766 28.444827,65.094891 10.461503 0 1 4.61951,1.90429 c -0.55661,1.52502 -1.15442,3.03353 -1.69637,4.56406 -1.69802,4.79544 -3.32647,9.61666 -4.89155,14.45114 -3.13016,9.66895 -6.01008,19.39182 -8.70881,29.08075 -2.69871,9.68894 -5.21613,19.34372 -7.61716,28.87109 -2.70819,10.74614 -5.27003,21.56828 -7.67955,32.45615 -1.05671,4.77491 -1.97052,9.60677 -2.96821,14.40608 z"
       id="path4510" />
  </g>
  <g
     inkscape:groupmode="layer"
     id="layer2"
     inkscape:label="Layer 2">
    <ellipse
       style="fill:none;stroke:#000000;stroke-width:0.911708;stroke-linejoin:round;stroke-miterlimit:4;stroke-dasharray:none;stroke-opacity:1"
       id="path4513"
       cx="385.71429"
       cy="525.64789"
       rx="36.169594"
       ry="36.769516" />
    <path
       style="fill:none;stroke:#000000;stroke-width:1.5100174;stroke-linejoin:round;stroke-miterlimit:4;stroke-dasharray:none;stroke-opacity:1"
       d="M 419.91406 537.5 L 750.85156 537.5 L 750.85156 516.08203 L 420.625 516.08203 A 36.169594 36.769516 0 0 1 421.35742 519.39844 A 36.169594 36.769516 0 0 1 421.79297 523.04688 A 36.169594 36.769516 0 0 1 421.88477 525.64844 A 36.169594 36.769516 0 0 1 421.70312 529.31836 A 36.169594 36.769516 0 0 1 421.16211 532.95312 A 36.169594 36.769516 0 0 1 420.26758 536.51367 A 36.169594 36.769516 0 0 1 419.91406 537.5 z "
       id="path4536" />
    <path
       style="fill:none;stroke:#000000;stroke-width:1.5100174;stroke-linejoin:round;stroke-miterlimit:4;stroke-dasharray:none;stroke-opacity:1"
       d="M 350.83398 516.08203 L 20.861328 516.08203 L 20.861328 537.5 L 351.52148 537.5 A 36.169594 36.769516 0 0 1 350.86328 535.48438 A 36.169594 36.769516 0 0 1 350.07031 531.89844 A 36.169594 36.769516 0 0 1 349.63477 528.24805 A 36.169594 36.769516 0 0 1 349.54492 525.64844 A 36.169594 36.769516 0 0 1 349.72461 521.97656 A 36.169594 36.769516 0 0 1 350.26562 518.34375 A 36.169594 36.769516 0 0 1 350.83398 516.08203 z "
       id="path4534" />
    <g
       id="g4544">
      <path
         style="fill:none;fill-rule:evenodd;stroke:#000000;stroke-width:1px;stroke-linecap:butt;stroke-linejoin:miter;stroke-opacity:1"
         d="m 749.50108,515.9712 c -26.72469,-9.94022 -50.88563,-29.57434 -64.64247,-54.06585 -11.033,-19.64221 -13.03308,-44.50355 -10.05313,-66.83432 2.20511,-16.5244 8.76583,-27.0146 20.14736,-45.77499 l -619.171092,0 c 11.38153,18.76039 17.942249,29.25059 20.14736,45.77499 2.979946,22.33077 0.979864,47.19211 -10.053132,66.83432 -13.756842,24.49151 -37.917781,44.12563 -64.642467,54.06585"
         id="path4542"
         inkscape:connector-curvature="0"
         sodipodi:nodetypes="caaccaac" />
    </g>
    <path
       style="fill:none;fill-rule:evenodd;stroke:#000000;stroke-width:1px;stroke-linecap:butt;stroke-linejoin:miter;stroke-opacity:1"
       d="m 75.508903,349.16977 c -39.867088,36.2312 10.54916,84.53765 -40.955146,140.88692"
       id="path4548"
       inkscape:connector-curvature="0"
       sodipodi:nodetypes="cc" />
    <path
       id="path4554"
       d="m 63.346146,489.96175 -29.140802,0.17857 0,10.44424 16.186405,-0.17857"
       style="fill:none;stroke:#000000;stroke-width:1.05518723;stroke-linejoin:round;stroke-miterlimit:4;stroke-dasharray:none;stroke-opacity:1"
       inkscape:connector-curvature="0"
       sodipodi:nodetypes="cccc" />
    <path
       sodipodi:nodetypes="cc"
       inkscape:connector-curvature="0"
       id="path4556"
       d="m 694.01402,349.16977 c 39.86708,36.2312 -10.54916,84.53765 40.95514,140.88692"
       style="fill:none;fill-rule:evenodd;stroke:#000000;stroke-width:1px;stroke-linecap:butt;stroke-linejoin:miter;stroke-opacity:1" />
    <path
       sodipodi:nodetypes="cccc"
       inkscape:connector-curvature="0"
       style="fill:none;stroke:#000000;stroke-width:1.05518723;stroke-linejoin:round;stroke-miterlimit:4;stroke-dasharray:none;stroke-opacity:1"
       d="m 707.692,490.21429 c 9.20853,-0.0247 18.41705,-0.0493 27.62558,-0.074 l 0,10.44424 -14.92372,0.074"
       id="path4558" />
  </g>
</svg>
